Coordinates
version=1
nRows=16
nColumns=36
inDegrees=yes

Units are S.I. units (second, meters, Newtons, ...)
If the header above contains a line with 'inDegrees', this indicates whether rotational values are in degrees (yes) or radians (no).

endheader
time	pelvis_tilt	pelvis_list	pelvis_rotation	pelvis_tx	pelvis_ty	pelvis_tz	hip_flexion_r	hip_adduction_r	hip_rotation_r	knee_angle_r	knee_angle_r_beta	ankle_angle_r	subtalar_angle_r	mtp_angle_r	hip_flexion_l	hip_adduction_l	hip_rotation_l	knee_angle_l	knee_angle_l_beta	ankle_angle_l	subtalar_angle_l	mtp_angle_l	lumbar_extension	lumbar_bending	lumbar_rotation	arm_flex_r	arm_add_r	arm_rot_r	elbow_flex_r	pro_sup_r	arm_flex_l	arm_add_l	arm_rot_l	elbow_flex_l	pro_sup_l
     29.98333330	      5.69804175	      2.75030636	    171.59051029	      0.50588163	      0.89532134	      0.74604655	     14.26230527	      0.27644711	     -0.33810044	     60.33609465	      1.05306351	     16.89014824	     -9.72532269	     -7.49999987	     32.49795826	     -5.10261052	     -1.82227087	     22.04351307	      0.38473188	     -8.32184681	     -7.18194441	     -7.49999987	     -6.31905450	      1.71620563	      9.23130303	     22.22164881	    -17.06558709	     -0.37567489	     50.01242572	     82.34090189	      9.63590244	     -3.51824939	     -3.12740990	     12.93970968	     84.35055595
     30.00000000	      4.79023883	      2.13254780	    172.01464664	      0.49914268	      0.89550136	      0.74427525	     15.65454807	     -0.72311062	      0.06539853	     65.97138037	      1.15141780	     11.74550324	    -12.27297402	     -7.49999987	     30.75813025	     -4.00051125	     -2.19721917	     23.41767272	      0.40871549	     -7.92709154	     -9.38754038	     -7.49999987	     -6.71112920	      0.81604303	      7.61209647	     21.14117605	    -14.90541592	     -0.87495168	     48.94604674	     83.29185148	      9.45273188	     -4.03496070	     -4.02868187	     12.64520929	     84.16028906
     30.01666670	      3.69099784	      1.89027245	    172.49464300	      0.49398351	      0.89684154	      0.74591536	     16.94211559	     -1.45863339	      0.25074052	     71.35281649	      1.24534158	      7.71094280	    -13.80273495	     -7.49999987	     28.58302220	     -3.24850726	     -2.70065663	     24.52588042	      0.42805737	     -6.89829486	    -10.73203157	     -7.49999987	     -7.49237653	      0.45306415	      5.96409905	     20.11721117	    -13.13459245	     -1.15073883	     47.55708748	     88.15321193	      9.16438435	     -4.35518499	     -6.85098291	     13.01267230	     84.27930313
     30.03333330	      2.73587457	      1.72176973	    172.64996106	      0.48858336	      0.89779146	      0.74872278	     18.76714967	     -2.03640214	      0.67888292	     76.56201867	      1.33625931	      5.31003885	    -15.24010468	     -7.49999987	     26.43900540	     -2.65810297	     -3.06837790	     25.45392274	      0.44425476	     -5.46220607	    -11.68780846	     -7.49999987	     -8.21651193	      0.21508867	      5.05802778	     18.43821288	    -11.87370695	     -1.17422387	     46.74753511	     88.14080087	      9.09186826	     -4.78322759	     -6.81153067	     13.23619756	     84.31977551
     30.05000000	      2.07995028	      1.48332362	    172.47519311	      0.48357503	      0.89817514	      0.75151526	     21.04057670	     -2.57946234	      1.28021171	     80.61154149	      1.40693681	      3.11504636	    -16.87126797	     -7.49999987	     24.59261857	     -2.08337846	     -3.22333003	     26.34414793	      0.45979212	     -3.87975066	    -12.07053901	     -7.49999987	     -8.46085793	      0.03131976	      4.36905224	     16.77675673	    -10.67856343	     -1.45061539	     45.43678105	     88.12523244	      8.65656397	     -5.16726810	     -6.82247409	     13.83145743	     84.35963833
     30.06666670	      2.06234883	      1.09385166	    172.15815637	      0.48161883	      0.89873331	      0.75579384	     23.89907341	     -3.09215735	      1.94976489	     82.87885797	      1.44650895	      1.44252851	    -18.13711377	     -7.49999987	     23.48433779	     -1.41178010	     -3.11245101	     27.29387307	      0.47636795	     -1.88186094	    -11.54828430	     -7.49999987	     -8.04589732	     -0.16475753	      3.54402048	     15.13013869	     -9.49909776	     -1.97733689	     43.42693677	     87.54404408	      7.95727946	     -5.49832236	     -6.74851012	     14.52146304	     83.76744065
     30.08333330	      1.96359426	      0.48881747	    172.03517116	      0.48526913	      0.90189234	      0.76241628	     26.39013608	     -3.87463151	      2.45562019	     83.16879047	      1.45156923	     -0.15411276	    -19.16992114	     -7.49999987	     22.07793361	     -0.31044917	     -2.65814987	     27.45296236	      0.47914458	     -0.65625281	    -11.19210048	     -7.49999987	     -7.97482953	     -0.50380035	      2.63082850	     13.22300008	     -8.82328451	     -2.30511393	     42.68874598	     87.60203291	      7.57255648	     -5.79039310	     -6.81219516	     15.41022275	     83.89093350
     30.10000000	      2.54061784	     -0.01642416	    172.00841802	      0.49385387	      0.90699925	      0.76843652	     29.25813667	     -4.32236309	      2.75937850	     81.55727015	      1.42344289	     -1.69376965	    -20.15669264	     -7.49999987	     21.40848586	      0.53925707	     -2.33789459	     27.15784701	      0.47399385	      0.22686892	    -10.48789696	     -7.49999987	     -7.48929716	     -0.54121436	      1.64258632	     11.59386202	     -8.21310991	     -3.27696129	     41.49840334	     87.57326886	      7.28996613	     -5.98405838	     -6.82043551	     16.61102223	     84.12734160
     30.11666670	      3.06235344	     -0.39477838	    172.07235760	      0.50249266	      0.91271589	      0.77125477	     31.79631910	     -4.50185928	      2.83055242	     78.65679081	      1.37281998	     -1.63896894	    -20.07984951	     -7.49999987	     20.65196007	      1.15372256	     -2.21954825	     26.40461434	      0.46084746	      0.57777810	    -10.08366492	     -7.49999987	     -7.64169888	     -0.43344128	      0.69750877	     10.01871506	     -8.16012291	     -3.41529018	     41.27557042	     86.94782939	      7.49872832	     -6.07470679	     -6.81845646	     17.74311080	     83.63688125
     30.13333330	      4.14994820	     -0.81457949	    172.32548936	      0.50647507	      0.91636319	      0.77070874	     34.47321728	     -4.49351342	      2.61669525	     74.48217753	      1.29995923	     -2.71342861	    -21.59378912	     -7.49999987	     20.53396948	      1.70079870	     -1.94485603	     25.54090321	      0.44577285	      0.41829368	    -10.38524300	     -7.49999987	     -6.89292185	     -0.46889760	      0.08537590	      8.83041473	     -7.69673844	     -5.04573798	     39.30130830	     86.79637757	      8.02121771	     -6.32270471	     -6.41712562	     18.82246669	     84.05494393
     30.15000000	      4.90921451	     -1.29708121	    172.59219008	      0.50674305	      0.91935230	      0.76752966	     36.12427392	     -4.40373631	      2.33984403	     69.05079183	      1.20516367	     -2.52437655	    -21.21830486	     -7.49999987	     19.80905892	      2.26417107	     -1.86338759	     24.39689599	      0.42580616	      0.57179948	    -10.49704349	     -7.49999987	     -6.47541947	     -0.69026955	     -0.65034447	      7.53342628	     -7.45167972	     -5.56791659	     38.56092149	     86.57289774	      8.83725575	     -6.66139356	     -6.19181250	     19.67377508	     84.07218116
     30.16666670	      5.39198179	     -1.61853463	    173.06551939	      0.50694325	      0.92321392	      0.76300384	     36.63764998	     -4.09590392	      1.78924716	     62.49317984	      1.09071175	     -1.96691242	    -19.34010832	     -7.49999987	     18.64419626	      2.72358452	     -1.34317069	     23.27776054	      0.40627356	      0.82069851	    -11.05844576	     -7.49999987	     -6.07286635	     -1.07425793	     -1.37763435	      6.72872415	     -6.63998209	     -7.47087514	     36.43179905	     86.11549801	      9.67238720	     -7.36694464	     -4.94339848	     21.18013259	     84.54209878
     30.18333330	      5.96986661	     -2.15628748	    173.63138966	      0.50873876	      0.92697806	      0.75926737	     36.74724864	     -3.96048131	      1.32793719	     55.66005124	      0.97145116	     -2.28409016	    -16.95299994	     -7.49999987	     17.65988193	      3.31538409	     -1.05529485	     22.27589979	      0.38878780	      0.98182649	    -11.22622102	     -7.49999987	     -5.48814714	     -1.80425580	     -1.76626961	      5.29487775	     -5.63474838	    -10.32496623	     35.17552235	     86.51729175	     11.06867911	     -8.55945986	     -1.18872255	     21.85049952	     85.84502063
     30.20000000	      6.64687924	     -2.63413558	    174.18191325	      0.51152231	      0.92989280	      0.75793410	     36.73859107	     -4.02288936	      0.69449262	     49.36966298	      0.86166317	     -3.08706630	    -14.75571420	     -7.49999987	     17.11321089	      3.79677548	     -1.05133470	     21.67440177	      0.37828967	      1.37537016	    -10.97549436	     -7.49999987	     -4.87383804	     -2.44180239	     -2.83313325	      4.58308396	     -4.83311171	    -11.13972090	     33.03119559	     86.28351972	     11.86471461	     -9.75035631	      0.01758593	     22.95357861	     85.83232267
     30.21666670	      7.39284324	     -3.16008798	    174.47029854	      0.51362588	      0.93076915	      0.75773888	     36.59464184	     -4.27852895	      0.10968188	     43.78631149	      0.76421530	     -4.58509754	    -13.12658705	     -7.49999987	     16.78274481	      4.35869121	     -1.08462284	     20.86742889	      0.36420534	      1.52502828	    -10.78720864	     -7.49999987	     -4.16935330	     -3.04379748	     -3.25701156	      3.34757506	     -4.52490696	    -11.37469890	     32.37417219	     86.22116670	     12.70684910	    -10.55993029	      0.15081450	     23.73307666	     85.84009178
     30.23333330	      7.44548217	     -3.12523318	    174.83481646	      0.51446660	      0.93066602	      0.75817467	     35.33553724	     -4.30085352	     -0.75365306	     38.51411435	      0.67219810	     -5.91153694	    -11.80519602	     -7.49999987	     15.85990483	      4.42700877	     -1.01497266	     20.09718171	      0.35076199	      2.38086333	     -9.74054360	     -7.49999987	     -4.47102704	     -3.02322952	     -3.89516019	      3.00330054	     -4.01987704	    -12.67742659	     30.57015164	     86.06266211	     13.30782123	    -11.63108897	      1.36003644	     24.99378395	     86.19643162
